<?xml version="1.0" standalone="no"?>
<!DOCTYPE svg PUBLIC "-//W3C//DTD SVG 20010904//EN"
 "http://www.w3.org/TR/2001/REC-SVG-20010904/DTD/svg10.dtd">
<svg version="1.0" xmlns="http://www.w3.org/2000/svg"
 width="260.000000pt" height="260.000000pt" viewBox="0 0 260.000000 260.000000"
 preserveAspectRatio="xMidYMid meet">
<metadata>
Created by potrace 1.11, written by Peter Selinger 2001-2013
</metadata>
<g transform="translate(0.000000,260.000000) scale(0.100000,-0.100000)"
fill="#000000" stroke="none">
<path d="M0 1300 l0 -1300 1300 0 1300 0 0 1300 0 1300 -1300 0 -1300 0 0
-1300z m2500 0 l0 -1200 -1200 0 -1200 0 0 1200 0 1200 1200 0 1200 0 0 -1200z"/>
<path d="M1345 1710 c-159 -53 -249 -185 -262 -380 -14 -220 70 -390 223 -451
49 -19 78 -23 174 -23 66 -1 137 5 168 12 l52 14 0 44 c0 24 -3 44 -7 44 -5
-1 -37 -7 -73 -15 -190 -42 -325 7 -391 140 -28 57 -33 79 -37 164 -6 133 18
217 83 289 90 100 204 116 392 57 18 -6 25 0 43 35 12 23 20 43 18 45 -2 1
-25 11 -53 20 -79 28 -254 30 -330 5z"/>
<path d="M240 1290 l0 -430 50 0 50 0 0 205 0 205 225 0 225 0 0 -205 0 -205
50 0 50 0 0 430 0 430 -50 0 -50 0 0 -185 0 -185 -225 0 -225 0 0 185 0 185
-50 0 -50 0 0 -430z"/>
<path d="M1880 1290 l0 -430 240 0 240 0 0 45 0 45 -187 2 -188 3 -3 383 -2
382 -50 0 -50 0 0 -430z"/>
</g>
</svg>
