<?xml version="1.0" standalone="no"?>
<!DOCTYPE svg PUBLIC "-//W3C//DTD SVG 20010904//EN"
 "http://www.w3.org/TR/2001/REC-SVG-20010904/DTD/svg10.dtd">
<svg version="1.0" xmlns="http://www.w3.org/2000/svg"
 width="260.000000pt" height="260.000000pt" viewBox="0 0 260.000000 260.000000"
 preserveAspectRatio="xMidYMid meet">
<metadata>
Created by potrace 1.11, written by Peter Selinger 2001-2013
</metadata>
<g transform="translate(0.000000,260.000000) scale(0.100000,-0.100000)"
fill="#000000" stroke="none">
<path d="M1166 2333 c-2 -3 -30 -11 -63 -20 -235 -61 -437 -276 -534 -568 -15
-46 -24 -63 -27 -50 -10 47 6 451 19 489 17 50 59 75 134 83 53 6 55 7 55 34
l0 29 -325 0 -325 0 0 -29 c0 -27 2 -28 55 -34 31 -3 70 -14 88 -24 64 -38 62
-8 62 -948 0 -772 -2 -853 -17 -887 -21 -47 -51 -66 -127 -80 -56 -11 -61 -14
-61 -37 l0 -26 325 0 325 0 0 27 c0 25 -4 27 -54 33 -30 4 -68 16 -86 26 -55
34 -62 69 -66 314 -3 147 -1 213 6 200 5 -11 23 -56 39 -100 47 -123 98 -202
191 -295 97 -98 181 -148 307 -182 73 -19 101 -21 408 -20 182 1 482 1 668 2
l339 0 -8 102 c-5 57 -8 194 -8 305 l1 203 -26 0 c-27 0 -27 -1 -44 -123 -20
-153 -48 -244 -90 -299 -65 -85 -139 -115 -308 -125 l-106 -6 -6 39 c-4 21 -7
168 -7 327 l0 287 -30 0 c-16 0 -30 -5 -30 -11 0 -33 -33 -232 -46 -278 -23
-79 -69 -166 -117 -218 -36 -39 -42 -42 -48 -26 -11 27 -11 1701 0 1707 15 10
90 -83 127 -158 25 -51 42 -109 61 -208 l26 -138 29 0 28 0 0 273 c0 149 3
296 6 325 l7 52 -30 0 c-28 0 -30 -3 -41 -61 -12 -66 -34 -109 -56 -109 -15 0
-126 88 -126 100 0 13 56 32 112 39 50 6 53 8 56 36 l3 30 -331 1 c-181 0
-332 -1 -334 -3z m140 -84 c16 -8 38 -32 49 -54 19 -38 20 -60 20 -450 l0
-410 -312 -3 -313 -2 0 45 c0 25 5 89 11 143 41 378 172 642 364 734 45 21
132 20 181 -3z m72 -1391 c-3 -389 -4 -415 -23 -453 -56 -113 -213 -88 -356
56 -87 86 -156 223 -198 390 -28 108 -51 281 -51 376 l0 43 316 0 315 0 -3
-412z m447 -420 c7 -18 15 -49 17 -68 l3 -35 -65 3 c-68 3 -115 19 -115 39 0
6 20 27 45 46 75 57 96 59 115 15z"/>
</g>
</svg>
